<?xml version="1.0" standalone="no"?>
<!DOCTYPE svg PUBLIC "-//W3C//DTD SVG 1.1//EN" "http://www.w3.org/Graphics/SVG/1.1/DTD/svg11.dtd" >
<svg xmlns="http://www.w3.org/2000/svg" xmlns:xlink="http://www.w3.org/1999/xlink" version="1.1">
<metadata>
Created by FontForge 20170731 at Fri May 29 23:56:20 1998
 By Aleksey,,,
Copr. 1991, 1992 Greg Thompson. Bodega is a Trademark of Greg Thompson. Produced by The Font Bureau, Inc.
</metadata>
<defs>
<font id="BodegaSansBlack" horiz-adv-x="420" >
  <font-face 
    font-family="BodegaSans Black"
    font-weight="400"
    font-stretch="normal"
    units-per-em="1000"
    panose-1="0 0 9 0 0 0 0 0 0 0"
    ascent="800"
    descent="-200"
    x-height="516"
    cap-height="772"
    bbox="-43 -197 1105 1037"
    underline-thickness="20"
    underline-position="-215"
    unicode-range="U+0020-F002"
  />
<missing-glyph horiz-adv-x="500" 
d="M63 0v803h375v-803h-375zM125 63h250v678h-250v-678z" />
    <glyph glyph-name=".notdef" horiz-adv-x="500" 
d="M63 0v803h375v-803h-375zM125 63h250v678h-250v-678z" />
    <glyph glyph-name="glyph1" horiz-adv-x="0" 
 />
    <glyph glyph-name="nonmarkingreturn" horiz-adv-x="146" 
 />
    <glyph glyph-name="space" unicode=" " horiz-adv-x="146" 
 />
    <glyph glyph-name="exclam" unicode="!" horiz-adv-x="270" 
d="M253 772l-19 -497h-132l-19 497h170zM234 0h-132v184h132v-184z" />
    <glyph glyph-name="quotedbl" unicode="&#x22;" horiz-adv-x="367" 
d="M342 525h-112v247h112v-247zM137 525h-112v247h112v-247z" />
    <glyph glyph-name="numbersign" unicode="#" horiz-adv-x="398" 
d="M396 440h-58l-11 -128h45v-92h-54l-19 -220h-100l20 220h-69l-19 -220h-100l20 220h-45v92h53l11 128h-40v92h48l21 240h100l-21 -240h68l21 240h100l-21 -240h50v-92zM238 440h-68l-11 -128h68z" />
    <glyph glyph-name="dollar" unicode="$" horiz-adv-x="369" 
d="M300 295q0 -105 -90 -151v-144h-107v123q-51 0 -95 18l56 112q18 -7 39 -7q18 0 30 11t12 28q0 26 -22 44q-57 46 -78 79.5t-21 82.5q0 92 79 136v145h107v-124q33 0 79 -16l-53 -106q-13 6 -32 6q-13 0 -23 -9.5t-10 -21.5q0 -24 40 -51q89 -59 89 -155z" />
    <glyph glyph-name="percent" unicode="%" horiz-adv-x="770" 
d="M322 581q0 -113 -59 -164q-39 -34 -92 -34t-92 34q-59 51 -59 164q0 112 59 162q39 34 92 34t92 -34q59 -50 59 -162zM594 772l-292 -772h-125l292 772h125zM750 193q0 -113 -59 -164q-39 -34 -92 -34t-92 34q-59 51 -59 164q0 112 59 162q39 34 92 34t92 -34
q59 -50 59 -162zM202 581q0 102 -31 102t-31 -102q0 -105 31 -105t31 105zM630 193q0 102 -31 102t-31 -102q0 -105 31 -105t31 105z" />
    <glyph glyph-name="ampersand" unicode="&#x26;" horiz-adv-x="530" 
d="M510 238h-56v-192q-82 -51 -174 -51q-98 0 -166 52q-89 67 -89 200q0 72 32 132q25 48 59 70q-70 42 -70 138q0 100 65 149q55 41 148 41q36 0 73 -7v-115q-34 8 -66 8q-27 0 -50 -15q-30 -21 -30 -61q0 -42 27 -65q18 -15 36 -15v-119q-22 0 -46 -34q-28 -43 -28 -107
q0 -65 35 -100q28 -28 65 -28q34 0 48 12v107h-40v125h227v-125z" />
    <glyph glyph-name="quotesingle" unicode="'" horiz-adv-x="162" 
d="M137 525h-112v247h112v-247z" />
    <glyph glyph-name="parenleft" unicode="(" horiz-adv-x="273" 
d="M253 -172h-124q-99 215 -99 472t99 472h124q-73 -240 -73 -472t73 -472z" />
    <glyph glyph-name="parenright" unicode=")" horiz-adv-x="273" 
d="M243 300q0 -257 -99 -472h-124q73 240 73 472t-73 472h124q99 -215 99 -472z" />
    <glyph glyph-name="asterisk" unicode="*" horiz-adv-x="384" 
d="M359 570l-81 -6l46 -76l-118 -54l-30 74l-58 -66l-88 95l62 52l-82 35l63 113l68 -43l8 88l128 -25l-20 -78l86 20z" />
    <glyph glyph-name="plus" unicode="+" horiz-adv-x="365" 
d="M320 238h-76v-114h-125v114h-74v125h74v114h125v-114h76v-125z" />
    <glyph glyph-name="comma" unicode="," horiz-adv-x="230" 
d="M197 154l-63 -325h-89v355z" />
    <glyph glyph-name="hyphen" unicode="-" horiz-adv-x="365" 
d="M320 238h-275v125h275v-125z" />
    <glyph glyph-name="hyphen" unicode="&#x2010;" horiz-adv-x="365" 
d="M320 238h-275v125h275v-125z" />
    <glyph glyph-name="period" unicode="." horiz-adv-x="230" 
d="M185 0h-140v184h140v-184z" />
    <glyph glyph-name="slash" unicode="/" horiz-adv-x="382" 
d="M372 772l-207 -772h-155l207 772h155z" />
    <glyph glyph-name="zero" unicode="0" horiz-adv-x="470" 
d="M435 386q0 -227 -61 -320q-47 -71 -139 -71t-139 71q-61 93 -61 320t61 320q47 71 139 71t139 -71q61 -93 61 -320zM285 386q0 266 -50 266t-50 -266t50 -266t50 266z" />
    <glyph glyph-name="one" unicode="1" horiz-adv-x="289" 
d="M223 0h-140v642l-44 5l20 125h164v-772z" />
    <glyph glyph-name="two" unicode="2" horiz-adv-x="346" 
d="M316 581q0 -95 -80 -237q-70 -124 -70 -219h149v-125h-289q-4 42 -4 81q0 169 82 321q36 66 46 91q23 54 23 99q0 29 -17 45.5t-40 16.5q-33 0 -58 -14l-53 109q48 28 115 28q89 0 144 -59q52 -55 52 -137z" />
    <glyph glyph-name="three" unicode="3" horiz-adv-x="356" 
d="M331 243q0 -128 -79 -193q-66 -55 -170 -55q-32 0 -57 7v124q23 -6 49 -6q40 0 71 30q36 34 36 93q0 66 -39 101q-34 30 -86 30l30 114q29 0 50.5 23.5t21.5 64.5q0 39 -24 60t-60 21q-23 0 -49 -7v120q24 7 58 7q101 0 157 -48q63 -53 63 -159q0 -46 -23 -88
q-19 -35 -46 -52q36 -19 62 -59q35 -54 35 -128z" />
    <glyph glyph-name="four" unicode="4" horiz-adv-x="412" 
d="M397 198h-40v-198h-137v198h-208l78 574h137l-59 -449h52v98h137v-98h40v-125z" />
    <glyph glyph-name="five" unicode="5" horiz-adv-x="362" 
d="M334 278q0 -148 -75 -221q-64 -62 -173 -62q-26 0 -54 6v123q26 -4 45 -4q43 0 71 29q37 39 37 121q0 74 -41 114q-39 37 -106 37v351h267v-125h-121v-127q50 -9 93 -59q57 -69 57 -183z" />
    <glyph glyph-name="six" unicode="6" horiz-adv-x="435" 
d="M410 264q0 -150 -66 -218q-49 -51 -125 -51q-78 0 -125 62q-64 84 -64 273q0 284 99 387q58 60 164 60q33 0 62 -7v-123q-27 6 -55 6q-48 0 -77 -43q-25 -37 -31 -95q14 6 28 6q77 0 125 -49q65 -65 65 -208zM262 261q0 135 -43 135q-19 0 -32 -22q-1 -10 -1 -32
q0 -131 9 -180q7 -42 26 -42q41 0 41 141z" />
    <glyph glyph-name="seven" unicode="7" horiz-adv-x="333" 
d="M316 772l-104 -772h-150l91 647h-153v125h316z" />
    <glyph glyph-name="eight" unicode="8" horiz-adv-x="430" 
d="M404 244q0 -126 -58 -192q-50 -57 -131 -57q-83 0 -132 57q-57 66 -57 192q0 125 79 185q-63 49 -63 151t56 154q46 43 117 43q70 0 116 -43q56 -52 56 -154q0 -99 -62 -151q79 -57 79 -185zM247 582q0 85 -32 85q-33 0 -33 -85t33 -85q32 0 32 85zM254 238q0 54 -11 86
t-28 32t-28 -32t-11 -86t11 -86t28 -32t28 32t11 86z" />
    <glyph glyph-name="nine" unicode="9" horiz-adv-x="435" 
d="M405 442q0 -284 -99 -387q-58 -60 -164 -60q-33 0 -62 7v123q27 -6 55 -6q48 0 77 43q25 37 31 95q-13 -6 -28 -6q-77 0 -125 49q-65 65 -65 208q0 150 66 219q49 50 125 50q78 0 125 -62q64 -84 64 -273zM249 430q0 131 -9 180q-7 42 -26 42q-41 0 -41 -141
q0 -135 43 -135q19 0 32 22q1 10 1 32z" />
    <glyph glyph-name="colon" unicode=":" horiz-adv-x="246" 
d="M195 332h-140v184h140v-184zM195 0h-140v184h140v-184z" />
    <glyph glyph-name="semicolon" unicode=";" horiz-adv-x="246" 
d="M195 332h-140v184h140v-184zM207 154l-63 -325h-89v355z" />
    <glyph glyph-name="less" unicode="&#x3c;" horiz-adv-x="300" 
d="M270 204l-72 -70l-163 163l163 163l72 -70l-83 -93z" />
    <glyph glyph-name="equal" unicode="=" horiz-adv-x="365" 
d="M320 353h-275v110h275v-110zM320 138h-275v110h275v-110z" />
    <glyph glyph-name="greater" unicode="&#x3e;" horiz-adv-x="300" 
d="M265 297l-163 -163l-72 70l83 93l-83 93l72 70z" />
    <glyph glyph-name="question" unicode="?" horiz-adv-x="366" 
d="M348 576q0 -45 -15.5 -83t-57.5 -99q-39 -57 -39 -119h-132q-1 18 -1 34q0 80 39 137q49 70 49 132q0 26 -16 44.5t-46 18.5q-32 0 -54 -15l-50 126q43 25 112 25q92 0 149 -49q62 -54 62 -152zM236 0h-132v184h132v-184z" />
    <glyph glyph-name="at" unicode="@" horiz-adv-x="513" 
d="M450 386q0 -90 -44 -138q-36 -39 -90 -39q-53 0 -87 39q-40 47 -40 138q0 94 41 141q28 32 59 32h16q-19 109 -64 109q-79 0 -79 -282t79 -282q34 0 49 52l125 -28q-48 -133 -174 -133q-90 0 -139 63q-72 93 -72 328t72 328q49 63 139 63q209 0 209 -391zM335 384
q0 76 -19 76t-19 -76t19 -76t19 76z" />
    <glyph glyph-name="A" unicode="A" horiz-adv-x="413" 
d="M408 0h-136l-16 125h-100l-16 -125h-135l116 772h171zM239 250l-33 295l-35 -295h68z" />
    <glyph glyph-name="B" unicode="B" horiz-adv-x="462" 
d="M434 257q0 -257 -266 -257h-120v772h120q106 0 174 -53t68 -142q0 -82 -52 -134q27 -21 49 -65q27 -57 27 -121zM262 578q0 30 -17 49.5t-47 19.5v-139q28 0 46 19.5t18 50.5zM281 257q0 44 -19 83q-14 30 -29 42q-18 -4 -35 -4v-253q83 0 83 132z" />
    <glyph glyph-name="C" unicode="C" horiz-adv-x="357" 
d="M335 2q-28 -7 -58 -7q-103 0 -160 61q-87 93 -87 330t87 330q57 61 160 61q30 0 58 -7v-122q-28 4 -42 4q-113 0 -113 -266t113 -266q14 0 42 4v-122z" />
    <glyph glyph-name="D" unicode="D" horiz-adv-x="462" 
d="M432 386q0 -223 -82 -314q-65 -72 -197 -72h-105v772h105q132 0 197 -72q82 -91 82 -314zM282 386q0 261 -84 261v-522q84 0 84 261z" />
    <glyph glyph-name="E" unicode="E" horiz-adv-x="383" 
d="M361 0h-313v238h-40v125h40v409h313v-125h-163v-284h132v-125h-132v-113h163v-125z" />
    <glyph glyph-name="F" unicode="F" horiz-adv-x="373" 
d="M361 647h-163v-284h132v-125h-132v-238h-150v238h-40v125h40v409h313v-125z" />
    <glyph glyph-name="G" unicode="G" horiz-adv-x="483" 
d="M438 37q-57 -42 -152 -42q-102 0 -165 68q-91 98 -91 323q0 223 87 321q62 70 160 70q48 0 88 -10v-121q-30 6 -64 6q-45 0 -75 -43q-46 -67 -46 -223q0 -266 110 -266q3 0 8 1v124q0 75 -36 75q-16 0 -21 -1v122q25 4 48 4q68 0 107 -52q42 -56 42 -166v-190z" />
    <glyph glyph-name="H" unicode="H" horiz-adv-x="491" 
d="M443 0h-150v238h-95v-238h-150v238h-40v125h40v409h150v-409h95v409h150v-772z" />
    <glyph glyph-name="I" unicode="I" horiz-adv-x="246" 
d="M198 0h-150v772h150v-772z" />
    <glyph glyph-name="J" unicode="J" horiz-adv-x="315" 
d="M267 386q0 -217 -56 -308q-51 -83 -164 -83q-17 0 -42 5v122q16 -2 27 -2q44 0 63 53q22 61 22 213v386h150v-386z" />
    <glyph glyph-name="K" unicode="K" horiz-adv-x="443" 
d="M438 0h-155l-85 349v-349h-150v772h150v-254l90 254h145l-111 -307z" />
    <glyph glyph-name="L" unicode="L" horiz-adv-x="361" 
d="M351 0h-303v772h150v-647h153v-125z" />
    <glyph glyph-name="M" unicode="M" horiz-adv-x="564" 
d="M516 0h-143v318l-61 -150h-60l-61 150v-318h-143v772h70l164 -397l164 397h70v-772z" />
    <glyph glyph-name="N" unicode="N" horiz-adv-x="503" 
d="M455 0h-70l-194 376v-376h-143v772h70l194 -376v376h143v-772z" />
    <glyph glyph-name="O" unicode="O" horiz-adv-x="480" 
d="M450 386q0 -219 -62 -314q-51 -77 -148 -77t-148 77q-62 95 -62 314t62 314q51 77 148 77t148 -77q62 -95 62 -314zM300 386q0 266 -60 266t-60 -266t60 -266t60 266z" />
    <glyph glyph-name="P" unicode="P" horiz-adv-x="438" 
d="M428 528q0 -148 -101 -235q-59 -50 -129 -68v-225h-150v772h115q119 0 192 -65t73 -179zM278 530q0 115 -80 115v-275q23 0 48 35q32 46 32 125z" />
    <glyph glyph-name="Q" unicode="Q" horiz-adv-x="484" 
d="M454 386q0 -316 -143 -377q7 -76 59 -76q3 0 14 1.5t15 1.5v-114q-16 -3 -40 -3q-70 0 -118 38q-63 49 -70 151q-141 64 -141 378q0 391 212 391t212 -391zM302 386q0 266 -60 266t-60 -266t60 -266t60 266z" />
    <glyph glyph-name="R" unicode="R" horiz-adv-x="453" 
d="M425 532q0 -170 -105 -241q49 -58 75 -123q27 -68 27 -168h-150q0 67 -20 117q-24 59 -57 90v-207h-150v772h118q114 0 185 -58q77 -65 77 -182zM275 531q0 114 -80 114v-275q22 0 49 42q31 50 31 119z" />
    <glyph glyph-name="S" unicode="S" horiz-adv-x="366" 
d="M346 209q0 -101 -59.5 -157.5t-154.5 -56.5q-72 0 -124 31l55 113q29 -17 69 -17q29 0 48 18.5t19 48.5q0 43 -23 87q-18 33 -65 92q-93 117 -93 213q0 90 53 143t143 53q57 0 98 -23l-53 -108q-22 8 -45 8t-37.5 -15t-14.5 -37q0 -34 22 -73q16 -27 65 -89
q53 -67 74 -116q23 -53 23 -115z" />
    <glyph glyph-name="T" unicode="T" horiz-adv-x="391" 
d="M386 647h-116v-647h-150v647h-115v125h381v-125z" />
    <glyph glyph-name="U" unicode="U" horiz-adv-x="491" 
d="M443 221q0 -107 -62 -170q-56 -56 -136 -56t-136 56q-61 63 -61 170v551h150v-574q0 -34 13.5 -56t33.5 -22t34 22t14 56v574h150v-551z" />
    <glyph glyph-name="V" unicode="V" horiz-adv-x="412" 
d="M407 772l-116 -772h-170l-116 772h140l61 -521l61 521h140z" />
    <glyph glyph-name="W" unicode="W" horiz-adv-x="704" 
d="M699 772l-116 -772h-170l-61 438l-61 -438h-170l-116 772h140l61 -521l61 521h170l61 -521l61 521h140z" />
    <glyph glyph-name="X" unicode="X" horiz-adv-x="458" 
d="M443 0h-150l-64 223l-64 -223h-150l115 392l-111 380h150l60 -211l60 211h150l-111 -380z" />
    <glyph glyph-name="Y" unicode="Y" horiz-adv-x="450" 
d="M445 772l-145 -463v-309h-150v309l-145 463h145l75 -286l75 286h145z" />
    <glyph glyph-name="Z" unicode="Z" horiz-adv-x="400" 
d="M365 0h-350l154 647h-138v125h331l-154 -647h157v-125z" />
    <glyph glyph-name="bracketleft" unicode="[" horiz-adv-x="330" 
d="M295 -165h-250v937h250v-125h-100v-687h100v-125z" />
    <glyph glyph-name="backslash" unicode="\" horiz-adv-x="382" 
d="M372 0h-155l-207 772h155z" />
    <glyph glyph-name="bracketright" unicode="]" horiz-adv-x="330" 
d="M295 -165h-250v125h100v687h-100v125h250v-937z" />
    <glyph glyph-name="asciicircum" unicode="^" horiz-adv-x="366" 
d="M346 609l-70 -72l-93 83l-93 -83l-70 72l163 163z" />
    <glyph glyph-name="underscore" unicode="_" horiz-adv-x="350" 
d="M352 -197h-357v125h357v-125z" />
    <glyph glyph-name="grave" unicode="`" horiz-adv-x="362" 
d="M298 662l-70 -69l-164 120l90 93z" />
    <glyph glyph-name="a" unicode="a" horiz-adv-x="374" 
d="M339 0h-130v38l-41 -41q-6 -2 -15 -2q-55 0 -95 46q-43 48 -43 123q0 99 74 157q53 42 110 47v3q0 36 -45 36q-36 0 -76 -10v113q39 11 89 11q172 0 172 -191v-330zM199 136v118q-14 0 -31 -23q-22 -28 -22 -67q0 -51 28 -51q18 0 25 23z" />
    <glyph glyph-name="b" unicode="b" horiz-adv-x="425" 
d="M400 230q0 -118 -53 -182q-49 -59 -124 -53q-4 0 -13 1l-33 34v-30h-132v772h140v-257q71 -7 130 -62q85 -79 85 -223zM260 219q0 81 -25 128q-21 39 -50 44v-254q8 -24 29 -24q19 0 32.5 29.5t13.5 76.5z" />
    <glyph glyph-name="c" unicode="c" horiz-adv-x="314" 
d="M296 -1q-27 -4 -62 -4q-64 0 -119 42q-90 68 -90 221t90 221q55 42 119 42q35 0 60 -4v-113q-15 3 -36 3q-35 0 -60 -32q-33 -40 -33 -117t33 -117q25 -32 60 -32q20 0 38 3v-113z" />
    <glyph glyph-name="d" unicode="d" horiz-adv-x="425" 
d="M380 0h-132v30l-33 -34q-5 -1 -13 -1q-75 -6 -124 53q-53 64 -53 182q0 144 85 223q59 55 130 62v257h140v-772zM240 137v254q-29 -5 -50 -44q-25 -47 -25 -128q0 -47 13.5 -76.5t32.5 -29.5q21 0 29 24z" />
    <glyph glyph-name="e" unicode="e" horiz-adv-x="363" 
d="M348 359q0 -91 -73 -149q-54 -44 -103 -48q2 -21 18 -37t38 -16q26 0 45 4v-113q-23 -5 -57 -5q-77 0 -125 49q-66 67 -66 215q0 146 60 213q44 49 114 49q58 0 99 -37q50 -45 50 -125zM221 369q0 42 -24 42q-33 0 -33 -99q0 -26 1 -36q15 0 34 25q22 29 22 68z" />
    <glyph glyph-name="f" unicode="f" horiz-adv-x="271" 
d="M283 660q-16 2 -23 2q-65 0 -65 -114v-32h78v-125h-78v-391h-140v391h-40v125h40v32q0 131 74 189q49 39 114 39q20 0 40 -3v-113z" />
    <glyph glyph-name="g" unicode="g" horiz-adv-x="415" 
d="M380 50q0 -122 -62 -180q-48 -46 -126 -46q-15 0 -40 3v113q15 -3 29 -3q30 0 46 17q13 14 13 32v15q-71 7 -130 62q-85 79 -85 223q0 118 53 182q49 59 124 53q4 0 13 -1l33 -34v30h132v-466zM240 125v254q-8 24 -29 24q-19 0 -32.5 -29.5t-13.5 -76.5q0 -81 25 -128
q21 -39 50 -44z" />
    <glyph glyph-name="h" unicode="h" horiz-adv-x="435" 
d="M401 0h-140v332q0 28 -11 46t-27 18t-27 -18t-11 -46v-332h-140v772h132v-284l32 32q4 1 14 1q178 0 178 -219v-302z" />
    <glyph glyph-name="i" unicode="i" horiz-adv-x="230" 
d="M181 588h-132v184h132v-184zM185 0h-140v516h140v-516z" />
    <glyph glyph-name="j" unicode="j" horiz-adv-x="230" 
d="M181 588h-132v184h132v-184zM185 58q0 -134 -74 -194q-49 -40 -114 -40q-20 0 -40 3v113q14 -2 25 -2q27 0 44 24q19 28 19 76v478h140v-458z" />
    <glyph glyph-name="k" unicode="k" horiz-adv-x="412" 
d="M402 0h-146l-76 238v-238h-140v772h140v-434l84 178h138l-102 -212z" />
    <glyph glyph-name="l" unicode="l" horiz-adv-x="230" 
d="M185 0h-140v772h140v-772z" />
    <glyph glyph-name="m" unicode="m" horiz-adv-x="640" 
d="M607 0h-140v332q0 28 -11 46t-27 18t-27 -18t-11 -46v-332h-140v332q0 28 -11 46t-27 18t-27 -18t-11 -46v-332h-140v516h130v-30l34 34q4 1 14 1q62 0 108 -36q41 36 108 36q84 0 130 -53q48 -57 48 -166v-302z" />
    <glyph glyph-name="n" unicode="n" horiz-adv-x="425" 
d="M391 0h-140v332q0 28 -11 46t-27 18t-27 -18t-11 -46v-332h-140v516h130v-30l34 34q4 1 14 1q178 0 178 -219v-302z" />
    <glyph glyph-name="o" unicode="o" horiz-adv-x="412" 
d="M387 258q0 -151 -68 -217q-46 -46 -113 -46t-113 46q-68 66 -68 217t68 217q46 46 113 46t113 -46q68 -66 68 -217zM247 258q0 138 -41 138t-41 -138t41 -138t41 138z" />
    <glyph glyph-name="p" unicode="p" horiz-adv-x="416" 
d="M390 286q0 -144 -85 -223q-59 -55 -130 -62v-172h-140v687h132v-30l33 34q5 1 13 1q75 6 124 -53q53 -64 53 -182zM250 297q0 47 -13.5 76.5t-32.5 29.5q-21 0 -29 -24v-254q29 5 50 44q25 47 25 128z" />
    <glyph glyph-name="q" unicode="q" horiz-adv-x="415" 
d="M380 -171h-140v172q-71 7 -130 62q-85 79 -85 223q0 118 53 182q49 59 124 53q4 0 13 -1l33 -34v30h132v-687zM240 125v254q-8 24 -29 24q-19 0 -32.5 -29.5t-13.5 -76.5q0 -81 25 -128q21 -39 50 -44z" />
    <glyph glyph-name="r" unicode="r" horiz-adv-x="279" 
d="M276 391h-9q-37 0 -63 -27q-29 -30 -29 -80v-284h-140v516h132v-50q29 50 96 50h13v-125z" />
    <glyph glyph-name="s" unicode="s" horiz-adv-x="309" 
d="M300 167q0 -76 -51 -124t-131 -48q-63 0 -110 18l56 112q18 -7 39 -7q18 0 30 11t12 28q0 26 -22 44q-57 46 -78 79.5t-21 82.5q0 68 47.5 113t120.5 45q51 0 97 -17l-53 -106q-13 6 -32 6q-13 0 -23 -9.5t-10 -21.5q0 -24 40 -51q89 -59 89 -155z" />
    <glyph glyph-name="t" unicode="t" horiz-adv-x="286" 
d="M278 3q-20 -3 -40 -3q-65 0 -114 40q-74 60 -74 194v157h-40v125h40v138h135v-138h82v-125h-77v-177q0 -48 18 -74t45 -26q9 0 25 2v-113z" />
    <glyph glyph-name="u" unicode="u" horiz-adv-x="426" 
d="M391 214q0 -108 -51 -166q-47 -53 -127 -53t-127 53q-51 58 -51 166v302h140v-332q0 -28 11 -46t27 -18t27 18t11 46v332h140v-302z" />
    <glyph glyph-name="v" unicode="v" horiz-adv-x="367" 
d="M362 516l-107 -516h-140l-110 516h122l58 -336l58 336h119z" />
    <glyph glyph-name="w" unicode="w" horiz-adv-x="601" 
d="M596 516l-107 -516h-131l-58 256l-55 -256h-131l-109 516h122l58 -336l58 336h118l58 -337l58 337h119z" />
    <glyph glyph-name="x" unicode="x" horiz-adv-x="414" 
d="M409 0h-123l-76 155l-69 -155h-136l125 272l-119 244h121l69 -139l64 139h137l-120 -259z" />
    <glyph glyph-name="y" unicode="y" horiz-adv-x="377" 
d="M365 516l-142 -687h-136l33 159l-112 528h122l58 -336l57 336h120z" />
    <glyph glyph-name="z" unicode="z" horiz-adv-x="327" 
d="M311 0h-304l117 391h-110v125h293l-117 -391h121v-125z" />
    <glyph glyph-name="braceleft" unicode="{" horiz-adv-x="300" 
d="M275 -172h-17q-74 0 -126 48q-61 55 -61 150v107q0 105 -56 105v124q56 0 56 105v107q0 95 61 150q52 48 126 48h17v-125q-54 0 -54 -60v-71q0 -116 -6 -148q-11 -54 -51 -68q40 -14 51 -67q6 -33 6 -149v-71q0 -60 54 -60v-125z" />
    <glyph glyph-name="bar" unicode="|" horiz-adv-x="240" 
d="M195 -171h-150v943h150v-943z" />
    <glyph glyph-name="braceright" unicode="}" horiz-adv-x="300" 
d="M285 238q-56 0 -56 -105v-107q0 -95 -60 -150q-53 -48 -127 -48h-17v125q54 0 54 60v71q0 116 6 149q11 53 51 67q-40 14 -51 68q-6 32 -6 148v71q0 60 -54 60v125h17q74 0 127 -48q60 -55 60 -150v-107q0 -105 56 -105v-124z" />
    <glyph glyph-name="asciitilde" unicode="~" horiz-adv-x="365" 
d="M347 286q-46 -55 -103 -55q-28 0 -54 10.5t-49 10.5q-41 0 -58 -19l-59 85q44 54 104 54q27 0 52 -11t46 -11q40 0 61 21z" />
    <glyph glyph-name="nonbreakingspace" unicode="&#xa0;" horiz-adv-x="73" 
 />
    <glyph glyph-name="exclamdown" unicode="&#xa1;" horiz-adv-x="270" 
d="M171 417h-132v184h132v-184zM190 -171h-170l19 497h132z" />
    <glyph glyph-name="cent" unicode="&#xa2;" horiz-adv-x="369" 
d="M296 127q-20 -4 -47 -4v-123h-107v147q-117 64 -117 239q0 176 117 238v148h107v-123q27 0 45 -4v-113q-4 0 -15.5 1.5t-20.5 1.5q-35 0 -60 -32q-33 -40 -33 -117t33 -117q25 -32 60 -32q9 0 21 1.5t17 1.5v-113z" />
    <glyph glyph-name="sterling" unicode="&#xa3;" horiz-adv-x="384" 
d="M336 50q-46 -55 -103 -55q-28 0 -54 7.5t-49 7.5q-37 0 -56 -17l-61 89q58 35 53 108l-3 48h-48v125h40l-15 219q-7 108 56 159q45 36 108 36q73 0 121 -39l-50 -100q-24 16 -49 16q-51 0 -47 -59l16 -232h105v-125h-97l3 -49q3 -47 -20 -70q17 -5 29 -5q40 0 61 21z" />
    <glyph glyph-name="currency" unicode="&#xa4;" 
d="M395 258q0 -123 -59 -197q-53 -66 -126 -66t-126 66q-59 74 -59 197t59 197q53 66 126 66t126 -66q59 -74 59 -197zM275 463q-33 23 -65 23q-34 0 -61 -21q7 -20 61 -196zM350 258q0 24 -3 52q-19 -8 -130 -55l66 -194q67 63 67 197zM203 255l-130 55q-3 -33 -3 -52
q0 -137 67 -196q7 20 66 193z" />
    <glyph glyph-name="yen" unicode="&#xa5;" horiz-adv-x="450" 
d="M445 772l-66 -211h36v-125h-75l-23 -73h98v-125h-115v-238h-150v238h-115v125h98l-23 73h-75v125h36l-66 211h145l75 -286l75 286h145z" />
    <glyph glyph-name="section" unicode="&#xa7;" horiz-adv-x="418" 
d="M403 206q0 -91 -62 -151t-146 -60q-83 0 -145 36l55 106q22 -17 58 -17q18 0 32.5 17.5t14.5 38.5q0 34 -17 65q-20 36 -72 92q-57 61 -77 101q-29 56 -29 132q0 91 64 152q60 59 144 59q83 0 145 -36l-55 -106q-22 17 -58 17q-18 0 -32.5 -17.5t-14.5 -38.5
q0 -34 17 -65q20 -36 72 -92q57 -61 77 -101q29 -56 29 -132zM318 206q0 52 -17 86.5t-67 88.5q-56 60 -78 99q-33 56 -33 116q0 40 18 67q-40 -41 -40 -94q0 -52 17 -86.5t67 -88.5q56 -60 78 -99q33 -56 33 -116q0 -40 -18 -67q40 41 40 94z" />
    <glyph glyph-name="dieresis" unicode="&#xa8;" horiz-adv-x="426" 
d="M353 622h-106v150h106v-150zM179 622h-106v150h106v-150z" />
    <glyph glyph-name="copyright" unicode="&#xa9;" horiz-adv-x="548" 
d="M510 258q0 -110 -67 -186.5t-168 -76.5q-103 0 -170 76.5t-67 186.5t67 186.5t170 76.5q101 0 168 -76.5t67 -186.5zM428 258q0 85 -43.5 139t-110.5 54t-110.5 -54t-43.5 -139t43.5 -139t110.5 -54t110.5 54t43.5 139zM319 113q-9 -2 -21 -2q-34 0 -64 24
q-48 38 -48 123q0 86 48 124q29 23 64 23q12 0 21 -2v-62q-4 1 -11 1q-17 0 -31 -18q-16 -23 -16 -66t16 -66q14 -18 31 -18q7 0 11 1v-62z" />
    <glyph glyph-name="ordfeminine" unicode="&#xaa;" horiz-adv-x="315" 
d="M262 386h-97v30l-31 -32q-5 -1 -11 -1q-41 0 -71 34q-33 36 -33 92q0 74 56 118q39 31 82 35v3q0 27 -34 27q-23 0 -57 -8v86q30 7 67 7q129 0 129 -142v-249zM270 211h-216v125h216v-125zM157 488v90q-10 0 -24 -18q-16 -21 -16 -51q0 -38 21 -38q13 0 19 17z" />
    <glyph glyph-name="guillemotleft" unicode="&#xab;" horiz-adv-x="530" 
d="M502 204l-72 -70l-163 163l163 163l72 -70l-83 -93zM270 204l-72 -70l-163 163l163 163l72 -70l-83 -93z" />
    <glyph glyph-name="logicalnot" unicode="&#xac;" 
d="M395 258q0 -123 -59 -197q-53 -66 -126 -66t-126 66q-59 74 -59 197t59 197q53 66 126 66t126 -66q59 -74 59 -197zM275 463q-33 23 -65 23q-34 0 -61 -21q7 -20 61 -196zM350 258q0 24 -3 52q-19 -8 -130 -55l66 -194q67 63 67 197zM203 255l-130 55q-3 -33 -3 -52
q0 -137 67 -196q7 20 66 193z" />
    <glyph glyph-name="registered" unicode="&#xae;" horiz-adv-x="286" 
d="M276 629q0 -62 -37.5 -105t-94.5 -43q-58 0 -96 43t-38 105t38 105t96 43q57 0 94.5 -43t37.5 -105zM230 629q0 48 -24.5 78t-62.5 30t-62.5 -30t-24.5 -78t24.5 -78t62.5 -30t62.5 30t24.5 78zM193 553h-33q0 17 -7 28q-5 7 -16 16v-44h-31v157h29q54 0 54 -44
q0 -38 -25 -52q9 -5 19 -21.5t10 -39.5zM157 666q0 16 -20 16v-52q20 6 20 36z" />
    <glyph glyph-name="macron" unicode="&#xaf;" horiz-adv-x="362" 
d="M276 622h-208v125h208v-125z" />
    <glyph glyph-name="macron" unicode="&#x2c9;" horiz-adv-x="362" 
d="M276 622h-208v125h208v-125z" />
    <glyph glyph-name="degree" unicode="&#xb0;" horiz-adv-x="306" 
d="M281 651q0 -52 -37.5 -89t-89.5 -37q-54 0 -91.5 36.5t-37.5 89.5q0 52 37.5 89t91.5 37q52 0 89.5 -37t37.5 -89zM198 651q0 19 -13.5 32.5t-32.5 13.5t-32.5 -13.5t-13.5 -32.5t13.5 -33t32.5 -14t32.5 13.5t13.5 33.5z" />
    <glyph glyph-name="plusminus" unicode="&#xb1;" 
d="M395 258q0 -123 -59 -197q-53 -66 -126 -66t-126 66q-59 74 -59 197t59 197q53 66 126 66t126 -66q59 -74 59 -197zM275 463q-33 23 -65 23q-34 0 -61 -21q7 -20 61 -196zM350 258q0 24 -3 52q-19 -8 -130 -55l66 -194q67 63 67 197zM203 255l-130 55q-3 -33 -3 -52
q0 -137 67 -196q7 20 66 193z" />
    <glyph glyph-name="acute" unicode="&#xb4;" horiz-adv-x="362" 
d="M298 713l-164 -120l-70 69l144 144z" />
    <glyph glyph-name="mu" unicode="&#xb5;" 
d="M395 258q0 -123 -59 -197q-53 -66 -126 -66t-126 66q-59 74 -59 197t59 197q53 66 126 66t126 -66q59 -74 59 -197zM275 463q-33 23 -65 23q-34 0 -61 -21q7 -20 61 -196zM350 258q0 24 -3 52q-19 -8 -130 -55l66 -194q67 63 67 197zM203 255l-130 55q-3 -33 -3 -52
q0 -137 67 -196q7 20 66 193z" />
    <glyph glyph-name="mu" unicode="&#x3bc;" 
d="M395 258q0 -123 -59 -197q-53 -66 -126 -66t-126 66q-59 74 -59 197t59 197q53 66 126 66t126 -66q59 -74 59 -197zM275 463q-33 23 -65 23q-34 0 -61 -21q7 -20 61 -196zM350 258q0 24 -3 52q-19 -8 -130 -55l66 -194q67 63 67 197zM203 255l-130 55q-3 -33 -3 -52
q0 -137 67 -196q7 20 66 193z" />
    <glyph glyph-name="paragraph" unicode="&#xb6;" horiz-adv-x="431" 
d="M406 682h-33v-781h-90v781h-55v-781h-90v395q-40 18 -72 75q-41 73 -41 172q0 139 67 196q40 33 96 33h218v-90z" />
    <glyph glyph-name="periodcentered" unicode="&#xb7;" horiz-adv-x="230" 
d="M185 336h-140v184h140v-184z" />
    <glyph glyph-name="periodcentered" unicode="&#x2219;" horiz-adv-x="230" 
d="M185 336h-140v184h140v-184z" />
    <glyph glyph-name="cedilla" unicode="&#xb8;" horiz-adv-x="362" 
d="M245 -4l-67 -161l-113 63l81 132z" />
    <glyph glyph-name="ordmasculine" unicode="&#xba;" horiz-adv-x="315" 
d="M294 579q0 -114 -51 -164q-35 -34 -85 -34t-85 34q-51 50 -51 164q0 112 51 162q35 34 85 34t85 -34q51 -50 51 -162zM267 211h-216v125h216v-125zM189 579q0 102 -31 102t-31 -102q0 -105 31 -105t31 105z" />
    <glyph glyph-name="guillemotright" unicode="&#xbb;" horiz-adv-x="530" 
d="M502 297l-163 -163l-72 70l83 93l-83 93l72 70zM265 297l-163 -163l-72 70l83 93l-83 93l72 70z" />
    <glyph glyph-name="questiondown" unicode="&#xbf;" horiz-adv-x="366" 
d="M260 417h-132v184h132v-184zM339 -151q-43 -25 -112 -25q-92 0 -149 49q-62 54 -62 152q0 45 15.5 83t57.5 99q39 57 39 119h132q1 -18 1 -34q0 -80 -39 -137q-49 -70 -49 -132q0 -26 16 -44.5t46 -18.5q33 0 54 15z" />
    <glyph glyph-name="Agrave" unicode="&#xc0;" horiz-adv-x="413" 
d="M408 0h-136l-16 125h-100l-16 -125h-135l116 772h171zM239 250l-33 295l-35 -295h68zM322 874l-70 -69l-164 120l90 93z" />
    <glyph glyph-name="Aacute" unicode="&#xc1;" horiz-adv-x="413" 
d="M408 0h-136l-16 125h-100l-16 -125h-135l116 772h171zM239 250l-33 295l-35 -295h68zM335 923l-164 -120l-70 69l144 144z" />
    <glyph glyph-name="Acircumflex" unicode="&#xc2;" horiz-adv-x="413" 
d="M408 0h-136l-16 125h-100l-16 -125h-135l116 772h171zM239 250l-33 295l-35 -295h68zM351 893l-54 -92l-92 42l-92 -42l-55 92l147 83z" />
    <glyph glyph-name="Atilde" unicode="&#xc3;" horiz-adv-x="413" 
d="M408 0h-136l-16 125h-100l-16 -125h-135l116 772h171zM239 250l-33 295l-35 -295h68zM370 865q-46 -55 -103 -55q-28 0 -54 10.5t-49 10.5q-41 0 -58 -19l-59 85q44 54 104 54q27 0 52 -11t46 -11q40 0 61 21z" />
    <glyph glyph-name="Adieresis" unicode="&#xc4;" horiz-adv-x="413" 
d="M408 0h-136l-16 125h-100l-16 -125h-135l116 772h171zM239 250l-33 295l-35 -295h68zM345 810h-106v150h106v-150zM171 810h-106v150h106v-150z" />
    <glyph glyph-name="Aring" unicode="&#xc5;" horiz-adv-x="413" 
d="M315 914q0 -46 -31 -77.5t-77 -31.5q-45 0 -76.5 31.5t-31.5 77.5q0 44 32 75.5t76 31.5q45 0 76.5 -31.5t31.5 -75.5zM408 0h-136l-16 125h-100l-16 -125h-135l116 772h171zM239 250l-33 295l-35 -295h68zM238 913q0 32 -31 32q-32 0 -32 -32q0 -31 32 -31q31 0 31 31z
" />
    <glyph glyph-name="AE" unicode="&#xc6;" horiz-adv-x="602" 
d="M580 0h-313v125h-103l-29 -125h-135l189 772h391v-125h-163v-284h132v-125h-132v-113h163v-125zM267 250v349l-74 -349h74z" />
    <glyph glyph-name="Ccedilla" unicode="&#xc7;" horiz-adv-x="357" 
d="M335 4q-28 -9 -58 -9h-16q-10 1 -16 1l-67 -161l-113 63l81 132q-116 81 -116 356q0 237 87 330q57 61 160 61q30 0 58 -9v-121q-6 0 -20 2.5t-24 2.5q-111 0 -111 -266t111 -266q10 0 24 2.5t20 2.5v-121z" />
    <glyph glyph-name="Egrave" unicode="&#xc8;" horiz-adv-x="383" 
d="M361 0h-313v238h-40v125h40v409h313v-125h-163v-284h132v-125h-132v-113h163v-125zM309 872l-70 -69l-164 120l90 93z" />
    <glyph glyph-name="Eacute" unicode="&#xc9;" horiz-adv-x="383" 
d="M361 0h-313v238h-40v125h40v409h313v-125h-163v-284h132v-125h-132v-113h163v-125zM329 923l-164 -120l-70 69l144 144z" />
    <glyph glyph-name="Ecircumflex" unicode="&#xca;" horiz-adv-x="383" 
d="M361 0h-313v238h-40v125h40v409h313v-125h-163v-284h132v-125h-132v-113h163v-125zM345 895l-54 -92l-92 42l-92 -42l-55 92l147 83z" />
    <glyph glyph-name="Edieresis" unicode="&#xcb;" horiz-adv-x="383" 
d="M361 0h-313v238h-40v125h40v409h313v-125h-163v-284h132v-125h-132v-113h163v-125zM341 806h-106v150h106v-150zM167 806h-106v150h106v-150z" />
    <glyph glyph-name="Igrave" unicode="&#xcc;" horiz-adv-x="246" 
d="M198 0h-150v772h150v-772zM240 872l-70 -69l-164 120l90 93z" />
    <glyph glyph-name="Iacute" unicode="&#xcd;" horiz-adv-x="246" 
d="M198 0h-150v772h150v-772zM249 930l-164 -120l-70 69l144 144z" />
    <glyph glyph-name="Icircumflex" unicode="&#xce;" horiz-adv-x="246" 
d="M198 0h-150v772h150v-772zM268 901l-54 -92l-92 42l-92 -42l-55 92l147 83z" />
    <glyph glyph-name="Idieresis" unicode="&#xcf;" horiz-adv-x="246" 
d="M198 0h-150v772h150v-772zM262 810h-106v150h106v-150zM88 810h-106v150h106v-150z" />
    <glyph glyph-name="Eth" unicode="&#xd0;" horiz-adv-x="462" 
d="M432 386q0 -223 -82 -314q-65 -72 -197 -72h-105v241h-40v119h40v412h105q132 0 197 -72q82 -91 82 -314zM285 386q0 261 -90 261v-287h45v-119h-45v-116q90 0 90 261z" />
    <glyph glyph-name="Ntilde" unicode="&#xd1;" horiz-adv-x="503" 
d="M455 0h-70l-194 376v-376h-143v772h70l194 -376v376h143v-772zM409 861q-46 -55 -103 -55q-28 0 -54 10.5t-49 10.5q-41 0 -58 -19l-59 85q44 54 104 54q27 0 52 -11t46 -11q40 0 61 21z" />
    <glyph glyph-name="Ograve" unicode="&#xd2;" horiz-adv-x="480" 
d="M450 386q0 -219 -62 -314q-51 -77 -148 -77t-148 77q-62 95 -62 314t62 314q51 77 148 77t148 -77q62 -95 62 -314zM300 386q0 266 -60 266t-60 -266t60 -266t60 266zM351 874l-70 -69l-164 120l90 93z" />
    <glyph glyph-name="Oacute" unicode="&#xd3;" horiz-adv-x="480" 
d="M450 386q0 -219 -62 -314q-51 -77 -148 -77t-148 77q-62 95 -62 314t62 314q51 77 148 77t148 -77q62 -95 62 -314zM300 386q0 266 -60 266t-60 -266t60 -266t60 266zM362 925l-164 -120l-70 69l144 144z" />
    <glyph glyph-name="Ocircumflex" unicode="&#xd4;" horiz-adv-x="480" 
d="M450 386q0 -219 -62 -314q-51 -77 -148 -77t-148 77q-62 95 -62 314t62 314q51 77 148 77t148 -77q62 -95 62 -314zM300 386q0 266 -60 266t-60 -266t60 -266t60 266zM386 895l-54 -92l-92 42l-92 -42l-55 92l147 83z" />
    <glyph glyph-name="Otilde" unicode="&#xd5;" horiz-adv-x="480" 
d="M450 386q0 -219 -62 -314q-51 -77 -148 -77t-148 77q-62 95 -62 314t62 314q51 77 148 77t148 -77q62 -95 62 -314zM300 386q0 266 -60 266t-60 -266t60 -266t60 266zM400 867q-46 -55 -103 -55q-28 0 -54 10.5t-49 10.5q-41 0 -58 -19l-59 85q44 54 104 54q27 0 52 -11
t46 -11q40 0 61 21z" />
    <glyph glyph-name="Odieresis" unicode="&#xd6;" horiz-adv-x="480" 
d="M450 386q0 -219 -62 -314q-51 -77 -148 -77t-148 77q-62 95 -62 314t62 314q51 77 148 77t148 -77q62 -95 62 -314zM300 386q0 266 -60 266t-60 -266t60 -266t60 266zM377 806h-106v150h106v-150zM203 806h-106v150h106v-150z" />
    <glyph glyph-name="Oslash" unicode="&#xd8;" horiz-adv-x="480" 
d="M455 772l-47 -109q42 -93 42 -277q0 -219 -62 -314q-51 -77 -148 -77q-64 0 -108 33l-12 -28h-95l47 109q-42 93 -42 277q0 219 62 314q51 77 148 77q64 0 108 -33l12 28h95zM283 594q-13 58 -43 58q-60 0 -60 -266v-28zM300 386v28l-104 -237q15 -57 44 -57q60 0 60 266
z" />
    <glyph glyph-name="Ugrave" unicode="&#xd9;" horiz-adv-x="491" 
d="M443 221q0 -107 -62 -170q-56 -56 -136 -56t-136 56q-61 63 -61 170v551h150v-574q0 -34 13.5 -56t33.5 -22t34 22t14 56v574h150v-551zM355 874l-70 -69l-164 120l90 93z" />
    <glyph glyph-name="Uacute" unicode="&#xda;" horiz-adv-x="491" 
d="M443 221q0 -107 -62 -170q-56 -56 -136 -56t-136 56q-61 63 -61 170v551h150v-574q0 -34 13.5 -56t33.5 -22t34 22t14 56v574h150v-551zM377 927l-164 -120l-70 69l144 144z" />
    <glyph glyph-name="Ucircumflex" unicode="&#xdb;" horiz-adv-x="491" 
d="M443 221q0 -107 -62 -170q-56 -56 -136 -56t-136 56q-61 63 -61 170v551h150v-574q0 -34 13.5 -56t33.5 -22t34 22t14 56v574h150v-551zM390 895l-54 -92l-92 42l-92 -42l-55 92l147 83z" />
    <glyph glyph-name="Udieresis" unicode="&#xdc;" horiz-adv-x="491" 
d="M443 221q0 -107 -62 -170q-56 -56 -136 -56t-136 56q-61 63 -61 170v551h150v-574q0 -34 13.5 -56t33.5 -22t34 22t14 56v574h150v-551zM385 809h-106v150h106v-150zM211 809h-106v150h106v-150z" />
    <glyph glyph-name="Yacute" unicode="&#xdd;" horiz-adv-x="450" 
d="M445 772l-145 -463v-309h-150v309l-145 463h145l75 -286l75 286h145zM355 944l-164 -120l-70 69l144 144z" />
    <glyph glyph-name="Thorn" unicode="&#xde;" horiz-adv-x="452" 
d="M428 379q0 -148 -101 -235q-59 -50 -129 -68v-76h-150v772h150v-149q100 -10 162 -69q68 -65 68 -175zM278 381q0 115 -80 115v-275q23 0 48 35q32 46 32 125z" />
    <glyph glyph-name="germandbls" unicode="&#xdf;" horiz-adv-x="494" 
d="M466 243q0 -248 -232 -248v124q82 0 82 124q0 129 -84 129v111q32 0 52 22q25 26 25 76q0 71 -58 71q-22 0 -37.5 -22t-15.5 -56v-574h-150v551q0 110 64 172q57 54 139 54q71 0 129 -45q69 -56 69 -151q0 -54 -20 -97q-18 -38 -44 -54q81 -54 81 -187z" />
    <glyph glyph-name="agrave" unicode="&#xe0;" horiz-adv-x="374" 
d="M339 0h-130v38l-41 -41q-6 -2 -15 -2q-55 0 -95 46q-43 48 -43 123q0 99 74 157q53 42 110 47v3q0 36 -45 36q-36 0 -76 -10v113q39 11 89 11q172 0 172 -191v-330zM199 136v118q-14 0 -31 -23q-22 -28 -22 -67q0 -51 28 -51q18 0 25 23zM313 636l-70 -69l-164 120l90 93
z" />
    <glyph glyph-name="aacute" unicode="&#xe1;" horiz-adv-x="374" 
d="M339 0h-130v38l-41 -41q-6 -2 -15 -2q-55 0 -95 46q-43 48 -43 123q0 99 74 157q53 42 110 47v3q0 36 -45 36q-36 0 -76 -10v113q39 11 89 11q172 0 172 -191v-330zM199 136v118q-14 0 -31 -23q-22 -28 -22 -67q0 -51 28 -51q18 0 25 23zM312 688l-164 -120l-70 69
l144 144z" />
    <glyph glyph-name="acircumflex" unicode="&#xe2;" horiz-adv-x="374" 
d="M339 0h-130v38l-41 -41q-6 -2 -15 -2q-55 0 -95 46q-43 48 -43 123q0 99 74 157q53 42 110 47v3q0 36 -45 36q-36 0 -76 -10v113q39 11 89 11q172 0 172 -191v-330zM199 136v118q-14 0 -31 -23q-22 -28 -22 -67q0 -51 28 -51q18 0 25 23zM339 659l-54 -92l-92 42l-92 -42
l-55 92l147 83z" />
    <glyph glyph-name="atilde" unicode="&#xe3;" horiz-adv-x="374" 
d="M339 0h-130v38l-41 -41q-6 -2 -15 -2q-55 0 -95 46q-43 48 -43 123q0 99 74 157q53 42 110 47v3q0 36 -45 36q-36 0 -76 -10v113q39 11 89 11q172 0 172 -191v-330zM199 136v118q-14 0 -31 -23q-22 -28 -22 -67q0 -51 28 -51q18 0 25 23zM355 631q-46 -55 -103 -55
q-28 0 -54 10.5t-49 10.5q-41 0 -58 -19l-59 85q44 54 104 54q27 0 52 -11t46 -11q40 0 61 21z" />
    <glyph glyph-name="adieresis" unicode="&#xe4;" horiz-adv-x="374" 
d="M339 0h-130v38l-41 -41q-6 -2 -15 -2q-55 0 -95 46q-43 48 -43 123q0 99 74 157q53 42 110 47v3q0 36 -45 36q-36 0 -76 -10v113q39 11 89 11q172 0 172 -191v-330zM199 136v118q-14 0 -31 -23q-22 -28 -22 -67q0 -51 28 -51q18 0 25 23zM336 572h-106v150h106v-150z
M162 572h-106v150h106v-150z" />
    <glyph glyph-name="aring" unicode="&#xe5;" horiz-adv-x="374" 
d="M339 0h-130v38l-41 -41q-6 -2 -15 -2q-55 0 -95 46q-43 48 -43 123q0 99 74 157q53 42 110 47v3q0 36 -45 36q-36 0 -76 -10v113q39 11 89 11q172 0 172 -191v-330zM199 136v118q-14 0 -31 -23q-22 -28 -22 -67q0 -51 28 -51q18 0 25 23zM307 679q0 -49 -33 -82t-81 -33
q-47 0 -80 33.5t-33 81.5q0 46 33.5 79t79.5 33q48 0 81 -33t33 -79zM226 678q0 33 -33 33t-33 -33t33 -33t33 33z" />
    <glyph glyph-name="ae" unicode="&#xe6;" horiz-adv-x="537" 
d="M522 359q0 -91 -73 -151q-57 -46 -103 -46q0 -21 16.5 -37t39.5 -16q28 0 45 6v-114q-21 -6 -57 -6q-67 0 -112 37q-45 -37 -117 -37q-61 0 -103.5 46.5t-42.5 122.5q0 99 74 157q53 42 110 47v3q0 36 -45 36q-36 0 -76 -10v113q39 11 89 11q72 0 112 -30q39 30 94 30
q58 0 99 -37q50 -45 50 -125zM395 369q0 42 -24 42q-33 0 -33 -99q0 -8 1 -20v-16q15 0 34 25q22 29 22 68zM199 136v118q-14 0 -31 -23q-22 -28 -22 -67q0 -51 28 -51q18 0 25 23z" />
    <glyph glyph-name="ccedilla" unicode="&#xe7;" horiz-adv-x="314" 
d="M296 0q-27 -5 -62 -5q-3 0 -15 2t-20 2l-72 -153l-92 52l85 135q-95 68 -95 225q0 153 90 221q55 42 119 42q35 0 60 -5v-113q-5 0 -16.5 2t-23.5 2q-34 0 -58 -32q-31 -40 -31 -117t31 -117q24 -32 58 -32q10 0 23.5 2t18.5 2v-113z" />
    <glyph glyph-name="egrave" unicode="&#xe8;" horiz-adv-x="363" 
d="M348 359q0 -91 -73 -149q-54 -44 -103 -48q2 -21 18 -37t38 -16q26 0 45 4v-113q-23 -5 -57 -5q-77 0 -125 49q-66 67 -66 215q0 146 60 213q44 49 114 49q58 0 99 -37q50 -45 50 -125zM221 369q0 42 -24 42q-33 0 -33 -99q0 -26 1 -36q15 0 34 25q22 29 22 68zM305 636
l-70 -69l-164 120l90 93z" />
    <glyph glyph-name="eacute" unicode="&#xe9;" horiz-adv-x="363" 
d="M348 359q0 -91 -73 -149q-54 -44 -103 -48q2 -21 18 -37t38 -16q26 0 45 4v-113q-23 -5 -57 -5q-77 0 -125 49q-66 67 -66 215q0 146 60 213q44 49 114 49q58 0 99 -37q50 -45 50 -125zM221 369q0 42 -24 42q-33 0 -33 -99q0 -26 1 -36q15 0 34 25q22 29 22 68zM317 687
l-164 -120l-70 69l144 144z" />
    <glyph glyph-name="ecircumflex" unicode="&#xea;" horiz-adv-x="363" 
d="M348 359q0 -91 -73 -149q-54 -44 -103 -48q2 -21 18 -37t38 -16q26 0 45 4v-113q-23 -5 -57 -5q-77 0 -125 49q-66 67 -66 215q0 146 60 213q44 49 114 49q58 0 99 -37q50 -45 50 -125zM221 369q0 42 -24 42q-33 0 -33 -99q0 -26 1 -36q15 0 34 25q22 29 22 68zM336 659
l-54 -92l-92 42l-92 -42l-55 92l147 83z" />
    <glyph glyph-name="edieresis" unicode="&#xeb;" horiz-adv-x="363" 
d="M348 359q0 -91 -73 -149q-54 -44 -103 -48q2 -21 18 -37t38 -16q26 0 45 4v-113q-23 -5 -57 -5q-77 0 -125 49q-66 67 -66 215q0 146 60 213q44 49 114 49q58 0 99 -37q50 -45 50 -125zM221 369q0 42 -24 42q-33 0 -33 -99q0 -26 1 -36q15 0 34 25q22 29 22 68zM334 567
h-106v150h106v-150zM160 567h-106v150h106v-150z" />
    <glyph glyph-name="igrave" unicode="&#xec;" horiz-adv-x="230" 
d="M185 0h-140v516h140v-516zM229 636l-70 -69l-164 120l90 93z" />
    <glyph glyph-name="iacute" unicode="&#xed;" horiz-adv-x="230" 
d="M185 0h-140v516h140v-516zM240 687l-164 -120l-70 69l144 144z" />
    <glyph glyph-name="icircumflex" unicode="&#xee;" horiz-adv-x="230" 
d="M185 0h-140v516h140v-516zM260 659l-54 -92l-92 42l-92 -42l-55 92l147 83z" />
    <glyph glyph-name="idieresis" unicode="&#xef;" horiz-adv-x="230" 
d="M185 0h-140v516h140v-516zM252 570h-106v150h106v-150zM78 570h-106v150h106v-150z" />
    <glyph glyph-name="eth" unicode="&#xf0;" horiz-adv-x="425" 
d="M430 666l-70 -25q20 -66 20 -139v-376q0 -52 -49 -91q-52 -40 -129 -40t-124 56q-53 62 -53 179q0 137 85 214q60 54 130 61v39q0 30 -4 54l-64 -22l-26 60l74 25q-26 73 -70 111h140q27 -24 47 -69l67 23zM240 137v244q-29 -5 -50 -42q-25 -44 -25 -120
q0 -47 13.5 -76.5t32.5 -29.5q21 0 29 24z" />
    <glyph glyph-name="ntilde" unicode="&#xf1;" horiz-adv-x="425" 
d="M391 0h-140v332q0 28 -11 46t-27 18t-27 -18t-11 -46v-332h-140v516h130v-30l34 34q4 1 14 1q178 0 178 -219v-302zM353 623q-46 -55 -103 -55q-28 0 -54 10.5t-49 10.5q-41 0 -58 -19l-59 85q44 54 104 54q27 0 52 -11t46 -11q40 0 61 21z" />
    <glyph glyph-name="ograve" unicode="&#xf2;" horiz-adv-x="412" 
d="M387 258q0 -151 -68 -217q-46 -46 -113 -46t-113 46q-68 66 -68 217t68 217q46 46 113 46t113 -46q68 -66 68 -217zM247 258q0 138 -41 138t-41 -138t41 -138t41 138zM316 633l-70 -69l-164 120l90 93z" />
    <glyph glyph-name="oacute" unicode="&#xf3;" horiz-adv-x="412" 
d="M387 258q0 -151 -68 -217q-46 -46 -113 -46t-113 46q-68 66 -68 217t68 217q46 46 113 46t113 -46q68 -66 68 -217zM247 258q0 138 -41 138t-41 -138t41 -138t41 138zM335 684l-164 -120l-70 69l144 144z" />
    <glyph glyph-name="ocircumflex" unicode="&#xf4;" horiz-adv-x="412" 
d="M387 258q0 -151 -68 -217q-46 -46 -113 -46t-113 46q-68 66 -68 217t68 217q46 46 113 46t113 -46q68 -66 68 -217zM247 258q0 138 -41 138t-41 -138t41 -138t41 138zM351 659l-54 -92l-92 42l-92 -42l-55 92l147 83z" />
    <glyph glyph-name="otilde" unicode="&#xf5;" horiz-adv-x="412" 
d="M387 258q0 -151 -68 -217q-46 -46 -113 -46t-113 46q-68 66 -68 217t68 217q46 46 113 46t113 -46q68 -66 68 -217zM247 258q0 138 -41 138t-41 -138t41 -138t41 138zM368 620q-46 -55 -103 -55q-28 0 -54 10.5t-49 10.5q-41 0 -58 -19l-59 85q44 54 104 54q27 0 52 -11
t46 -11q40 0 61 21z" />
    <glyph glyph-name="odieresis" unicode="&#xf6;" horiz-adv-x="412" 
d="M387 258q0 -151 -68 -217q-46 -46 -113 -46t-113 46q-68 66 -68 217t68 217q46 46 113 46t113 -46q68 -66 68 -217zM247 258q0 138 -41 138t-41 -138t41 -138t41 138zM346 567h-106v150h106v-150zM172 567h-106v150h106v-150z" />
    <glyph glyph-name="divide" unicode="&#xf7;" 
d="M395 258q0 -123 -59 -197q-53 -66 -126 -66t-126 66q-59 74 -59 197t59 197q53 66 126 66t126 -66q59 -74 59 -197zM275 463q-33 23 -65 23q-34 0 -61 -21q7 -20 61 -196zM350 258q0 24 -3 52q-19 -8 -130 -55l66 -194q67 63 67 197zM203 255l-130 55q-3 -33 -3 -52
q0 -137 67 -196q7 20 66 193z" />
    <glyph glyph-name="oslash" unicode="&#xf8;" horiz-adv-x="412" 
d="M392 516l-44 -79q39 -66 39 -179q0 -151 -68 -217q-46 -46 -113 -46q-47 0 -89 26l-12 -21h-85l44 78q-39 68 -39 180q0 151 68 217q46 46 113 46q48 0 89 -27l12 22h85zM230 377q-10 19 -24 19q-41 0 -41 -135zM247 255l-65 -116q10 -19 24 -19q41 0 41 135z" />
    <glyph glyph-name="ugrave" unicode="&#xf9;" horiz-adv-x="426" 
d="M391 214q0 -108 -51 -166q-47 -53 -127 -53t-127 53q-51 58 -51 166v302h140v-332q0 -28 11 -46t27 -18t27 18t11 46v332h140v-302zM331 636l-70 -69l-164 120l90 93z" />
    <glyph glyph-name="uacute" unicode="&#xfa;" horiz-adv-x="426" 
d="M391 214q0 -108 -51 -166q-47 -53 -127 -53t-127 53q-51 58 -51 166v302h140v-332q0 -28 11 -46t27 -18t27 18t11 46v332h140v-302zM338 687l-164 -120l-70 69l144 144z" />
    <glyph glyph-name="ucircumflex" unicode="&#xfb;" horiz-adv-x="426" 
d="M391 214q0 -108 -51 -166q-47 -53 -127 -53t-127 53q-51 58 -51 166v302h140v-332q0 -28 11 -46t27 -18t27 18t11 46v332h140v-302zM358 659l-54 -92l-92 42l-92 -42l-55 92l147 83z" />
    <glyph glyph-name="udieresis" unicode="&#xfc;" horiz-adv-x="426" 
d="M391 214q0 -108 -51 -166q-47 -53 -127 -53t-127 53q-51 58 -51 166v302h140v-332q0 -28 11 -46t27 -18t27 18t11 46v332h140v-302zM354 567h-106v150h106v-150zM180 567h-106v150h106v-150z" />
    <glyph glyph-name="yacute" unicode="&#xfd;" horiz-adv-x="377" 
d="M365 516l-142 -687h-136l33 159l-112 528h122l58 -336l57 336h120zM318 688l-164 -120l-70 69l144 144z" />
    <glyph glyph-name="thorn" unicode="&#xfe;" horiz-adv-x="416" 
d="M390 286q0 -144 -85 -223q-59 -55 -130 -62v-172h-140v943h140v-278l25 26q5 1 13 1q75 6 124 -53q53 -64 53 -182zM250 297q0 47 -13.5 76.5t-32.5 29.5q-21 0 -29 -24v-254q29 5 50 44q25 47 25 128z" />
    <glyph glyph-name="ydieresis" unicode="&#xff;" horiz-adv-x="377" 
d="M365 516l-142 -687h-136l33 159l-112 528h122l58 -336l57 336h120zM331 569h-106v150h106v-150zM157 569h-106v150h106v-150z" />
    <glyph glyph-name="dotlessi" unicode="&#x131;" horiz-adv-x="230" 
d="M185 0h-140v516h140v-516z" />
    <glyph glyph-name="Lslash" unicode="&#x141;" horiz-adv-x="361" 
d="M351 0h-303v199l-22 -11l-44 86l66 34v464h150v-387l64 33l44 -86l-108 -56v-151h153v-125z" />
    <glyph glyph-name="lslash" unicode="&#x142;" horiz-adv-x="230" 
d="M250 296l-65 -31v-265h-140v197l-19 -9l-44 86l63 30v468h140v-400l21 10z" />
    <glyph glyph-name="OE" unicode="&#x152;" horiz-adv-x="634" 
d="M612 0h-277v28q-33 -33 -95 -33q-97 0 -148 77q-62 95 -62 314t62 314q51 77 148 77q62 0 95 -33v28h277v-125h-163v-284h132v-125h-132v-113h163v-125zM300 386q0 266 -60 266t-60 -266t60 -266t60 266z" />
    <glyph glyph-name="oe" unicode="&#x153;" horiz-adv-x="585" 
d="M570 359q0 -91 -73 -151q-57 -46 -103 -46q0 -21 16.5 -37t39.5 -16q28 0 45 6v-114q-21 -6 -57 -6q-72 0 -121 44q-45 -44 -111 -44q-67 0 -113 46q-68 66 -68 217t68 217q46 46 113 46q63 0 108 -41q42 41 107 41q58 0 99 -37q50 -45 50 -125zM443 369q0 42 -24 42
q-33 0 -33 -99q0 -8 1 -20v-16q15 0 34 25q22 29 22 68zM247 258q0 138 -41 138t-41 -138t41 -138t41 138z" />
    <glyph glyph-name="Scaron" unicode="&#x160;" horiz-adv-x="366" 
d="M346 209q0 -101 -59.5 -157.5t-154.5 -56.5q-72 0 -124 31l55 113q29 -17 69 -17q29 0 48 18.5t19 48.5q0 43 -23 87q-18 33 -65 92q-93 117 -93 213q0 90 53 143t143 53q57 0 98 -23l-53 -108q-22 8 -45 8t-37.5 -15t-14.5 -37q0 -34 22 -73q16 -27 65 -89
q53 -67 74 -116q23 -53 23 -115zM321 907l-146 -83l-147 83l55 92l92 -42l92 42z" />
    <glyph glyph-name="scaron" unicode="&#x161;" horiz-adv-x="309" 
d="M300 167q0 -76 -51 -124t-131 -48q-63 0 -110 18l56 112q18 -7 39 -7q18 0 30 11t12 28q0 26 -22 44q-57 46 -78 79.5t-21 82.5q0 68 47.5 113t120.5 45q51 0 97 -17l-53 -106q-13 6 -32 6q-13 0 -23 -9.5t-10 -21.5q0 -24 40 -51q89 -59 89 -155zM303 649l-146 -83
l-147 83l55 92l92 -42l92 42z" />
    <glyph glyph-name="Ydieresis" unicode="&#x178;" horiz-adv-x="450" 
d="M445 772l-145 -463v-309h-150v309l-145 463h145l75 -286l75 286h145zM368 808h-106v150h106v-150zM194 808h-106v150h106v-150z" />
    <glyph glyph-name="Zcaron" unicode="&#x17d;" horiz-adv-x="400" 
d="M365 0h-350l154 647h-138v125h331l-154 -647h157v-125zM349 908l-146 -83l-147 83l55 92l92 -42l92 42z" />
    <glyph glyph-name="zcaron" unicode="&#x17e;" horiz-adv-x="327" 
d="M311 0h-304l117 391h-110v125h293l-117 -391h121v-125zM309 648l-146 -83l-147 83l55 92l92 -42l92 42z" />
    <glyph glyph-name="florin" unicode="&#x192;" horiz-adv-x="271" 
d="M283 660q-16 2 -23 2q-65 0 -65 -114v-32h78v-125h-78v-391q0 -91 -40 -131q-45 -45 -128 -45v125q11 0 19.5 8.5t8.5 23.5v410h-40v125h40v32q0 131 74 189q49 39 114 39q20 0 40 -3v-113z" />
    <glyph glyph-name="circumflex" unicode="&#x2c6;" horiz-adv-x="362" 
d="M319 701l-54 -92l-92 42l-92 -42l-55 92l147 83z" />
    <glyph glyph-name="caron" unicode="&#x2c7;" horiz-adv-x="362" 
d="M327 688l-146 -83l-147 83l55 92l92 -42l92 42z" />
    <glyph glyph-name="breve" unicode="&#x2d8;" horiz-adv-x="362" 
d="M314 658q-69 -48 -141 -48t-141 48l59 102q41 -30 82 -30q43 0 82 30z" />
    <glyph glyph-name="dotaccent" unicode="&#x2d9;" horiz-adv-x="362" 
d="M243 601h-140v184h140v-184z" />
    <glyph glyph-name="ring" unicode="&#x2da;" horiz-adv-x="362" 
d="M287 689q0 -49 -33 -82t-81 -33q-47 0 -80 33.5t-33 81.5q0 46 33.5 79t79.5 33q48 0 81 -33t33 -79zM206 688q0 33 -33 33t-33 -33t33 -33t33 33z" />
    <glyph glyph-name="ogonek" unicode="&#x2db;" horiz-adv-x="362" 
d="M271 -102l-113 -63l-67 161l99 34z" />
    <glyph glyph-name="tilde" unicode="&#x2dc;" horiz-adv-x="362" 
d="M325 671q-46 -55 -103 -55q-28 0 -54 10.5t-49 10.5q-41 0 -58 -19l-59 85q44 54 104 54q27 0 52 -11t46 -11q40 0 61 21z" />
    <glyph glyph-name="hungarumlaut" unicode="&#x2dd;" horiz-adv-x="362" 
d="M380 728l-125 -135l-67 60l111 153zM197 728l-125 -135l-67 60l111 153z" />
    <glyph glyph-name="Delta" unicode="&#x394;" 
d="M395 258q0 -123 -59 -197q-53 -66 -126 -66t-126 66q-59 74 -59 197t59 197q53 66 126 66t126 -66q59 -74 59 -197zM275 463q-33 23 -65 23q-34 0 -61 -21q7 -20 61 -196zM350 258q0 24 -3 52q-19 -8 -130 -55l66 -194q67 63 67 197zM203 255l-130 55q-3 -33 -3 -52
q0 -137 67 -196q7 20 66 193z" />
    <glyph glyph-name="Delta" unicode="&#x2206;" 
d="M395 258q0 -123 -59 -197q-53 -66 -126 -66t-126 66q-59 74 -59 197t59 197q53 66 126 66t126 -66q59 -74 59 -197zM275 463q-33 23 -65 23q-34 0 -61 -21q7 -20 61 -196zM350 258q0 24 -3 52q-19 -8 -130 -55l66 -194q67 63 67 197zM203 255l-130 55q-3 -33 -3 -52
q0 -137 67 -196q7 20 66 193z" />
    <glyph glyph-name="Omega" unicode="&#x3a9;" 
d="M395 258q0 -123 -59 -197q-53 -66 -126 -66t-126 66q-59 74 -59 197t59 197q53 66 126 66t126 -66q59 -74 59 -197zM275 463q-33 23 -65 23q-34 0 -61 -21q7 -20 61 -196zM350 258q0 24 -3 52q-19 -8 -130 -55l66 -194q67 63 67 197zM203 255l-130 55q-3 -33 -3 -52
q0 -137 67 -196q7 20 66 193z" />
    <glyph glyph-name="Omega" unicode="&#x2126;" 
d="M395 258q0 -123 -59 -197q-53 -66 -126 -66t-126 66q-59 74 -59 197t59 197q53 66 126 66t126 -66q59 -74 59 -197zM275 463q-33 23 -65 23q-34 0 -61 -21q7 -20 61 -196zM350 258q0 24 -3 52q-19 -8 -130 -55l66 -194q67 63 67 197zM203 255l-130 55q-3 -33 -3 -52
q0 -137 67 -196q7 20 66 193z" />
    <glyph glyph-name="pi" unicode="&#x3c0;" 
d="M395 258q0 -123 -59 -197q-53 -66 -126 -66t-126 66q-59 74 -59 197t59 197q53 66 126 66t126 -66q59 -74 59 -197zM275 463q-33 23 -65 23q-34 0 -61 -21q7 -20 61 -196zM350 258q0 24 -3 52q-19 -8 -130 -55l66 -194q67 63 67 197zM203 255l-130 55q-3 -33 -3 -52
q0 -137 67 -196q7 20 66 193z" />
    <glyph glyph-name="endash" unicode="&#x2013;" horiz-adv-x="465" 
d="M420 238h-375v125h375v-125z" />
    <glyph glyph-name="emdash" unicode="&#x2014;" horiz-adv-x="565" 
d="M520 238h-475v125h475v-125z" />
    <glyph glyph-name="quoteleft" unicode="&#x2018;" horiz-adv-x="215" 
d="M170 417l-152 30l63 325h89v-355z" />
    <glyph glyph-name="quoteright" unicode="&#x2019;" horiz-adv-x="215" 
d="M197 742l-63 -325h-89v355z" />
    <glyph glyph-name="quotesinglbase" unicode="&#x201a;" horiz-adv-x="215" 
d="M197 154l-63 -325h-89v355z" />
    <glyph glyph-name="quotedblleft" unicode="&#x201c;" horiz-adv-x="396" 
d="M154 459l-136 27l56 290h80v-317zM348 421l-152 30l63 325h89v-355z" />
    <glyph glyph-name="quotedblright" unicode="&#x201d;" horiz-adv-x="396" 
d="M200 742l-63 -325h-89v355zM378 707l-56 -290h-80v317z" />
    <glyph glyph-name="quotedblbase" unicode="&#x201e;" horiz-adv-x="396" 
d="M200 154l-63 -325h-89v355zM378 119l-56 -290h-80v317z" />
    <glyph glyph-name="dagger" unicode="&#x2020;" horiz-adv-x="332" 
d="M297 391h-62q15 -79 15 -161q0 -135 -84 -245q-84 110 -84 245q0 82 13 161h-60v125h60v256h140v-256h62v-125z" />
    <glyph glyph-name="daggerdbl" unicode="&#x2021;" horiz-adv-x="332" 
d="M297 0h-62v-171h-140v171h-60v125h60q-14 118 -14 175t14 176h-60v125h60v171h140v-171h62v-125h-62q14 -112 14 -176q0 -63 -14 -175h62v-125z" />
    <glyph glyph-name="bullet" unicode="&#x2022;" horiz-adv-x="433" 
d="M408 300q0 -41 -58.5 -71t-140.5 -30t-140.5 30t-58.5 71t58.5 70.5t140.5 29.5t140.5 -29.5t58.5 -70.5z" />
    <glyph glyph-name="ellipsis" unicode="&#x2026;" horiz-adv-x="615" 
d="M575 0h-140v184h140v-184zM380 0h-140v184h140v-184zM185 0h-140v184h140v-184z" />
    <glyph glyph-name="perthousand" unicode="&#x2030;" horiz-adv-x="1125" 
d="M322 581q0 -113 -59 -164q-39 -34 -92 -34t-92 34q-59 51 -59 164q0 112 59 162q39 34 92 34t92 -34q59 -50 59 -162zM594 772l-292 -772h-125l292 772h125zM1105 193q0 -113 -59 -164q-39 -34 -92 -34t-92 34q-59 51 -59 164q0 112 59 162q39 34 92 34t92 -34
q59 -50 59 -162zM750 193q0 -113 -59 -164q-39 -34 -92 -34t-92 34q-59 51 -59 164q0 112 59 162q39 34 92 34t92 -34q59 -50 59 -162zM202 581q0 102 -31 102t-31 -102q0 -105 31 -105t31 105zM985 193q0 102 -31 102t-31 -102q0 -105 31 -105t31 105zM630 193
q0 102 -31 102t-31 -102q0 -105 31 -105t31 105z" />
    <glyph glyph-name="guilsinglleft" unicode="&#x2039;" horiz-adv-x="300" 
d="M270 204l-72 -70l-163 163l163 163l72 -70l-83 -93z" />
    <glyph glyph-name="guilsinglright" unicode="&#x203a;" horiz-adv-x="300" 
d="M265 297l-163 -163l-72 70l83 93l-83 93l72 70z" />
    <glyph glyph-name="fraction" unicode="&#x2044;" horiz-adv-x="467" 
d="M442 772l-292 -772h-125l292 772h125z" />
    <glyph glyph-name="trademark" unicode="&#x2122;" horiz-adv-x="450" 
d="M407 516h-66v136l-29 -61h-22l-29 61v-136h-66v256h55l52 -110l50 110h55v-256zM180 706h-37v-190h-74v190h-39v66h150v-66z" />
    <glyph glyph-name="partialdiff" unicode="&#x2202;" 
d="M395 258q0 -123 -59 -197q-53 -66 -126 -66t-126 66q-59 74 -59 197t59 197q53 66 126 66t126 -66q59 -74 59 -197zM275 463q-33 23 -65 23q-34 0 -61 -21q7 -20 61 -196zM350 258q0 24 -3 52q-19 -8 -130 -55l66 -194q67 63 67 197zM203 255l-130 55q-3 -33 -3 -52
q0 -137 67 -196q7 20 66 193z" />
    <glyph glyph-name="product" unicode="&#x220f;" 
d="M395 258q0 -123 -59 -197q-53 -66 -126 -66t-126 66q-59 74 -59 197t59 197q53 66 126 66t126 -66q59 -74 59 -197zM275 463q-33 23 -65 23q-34 0 -61 -21q7 -20 61 -196zM350 258q0 24 -3 52q-19 -8 -130 -55l66 -194q67 63 67 197zM203 255l-130 55q-3 -33 -3 -52
q0 -137 67 -196q7 20 66 193z" />
    <glyph glyph-name="summation" unicode="&#x2211;" 
d="M395 258q0 -123 -59 -197q-53 -66 -126 -66t-126 66q-59 74 -59 197t59 197q53 66 126 66t126 -66q59 -74 59 -197zM275 463q-33 23 -65 23q-34 0 -61 -21q7 -20 61 -196zM350 258q0 24 -3 52q-19 -8 -130 -55l66 -194q67 63 67 197zM203 255l-130 55q-3 -33 -3 -52
q0 -137 67 -196q7 20 66 193z" />
    <glyph glyph-name="radical" unicode="&#x221a;" horiz-adv-x="462" 
d="M475 772l-155 -772h-171l-63 301l-20 -20l-68 67l177 175l75 -371l121 620h104z" />
    <glyph glyph-name="infinity" unicode="&#x221e;" 
d="M395 258q0 -123 -59 -197q-53 -66 -126 -66t-126 66q-59 74 -59 197t59 197q53 66 126 66t126 -66q59 -74 59 -197zM275 463q-33 23 -65 23q-34 0 -61 -21q7 -20 61 -196zM350 258q0 24 -3 52q-19 -8 -130 -55l66 -194q67 63 67 197zM203 255l-130 55q-3 -33 -3 -52
q0 -137 67 -196q7 20 66 193z" />
    <glyph glyph-name="integral" unicode="&#x222b;" 
d="M395 258q0 -123 -59 -197q-53 -66 -126 -66t-126 66q-59 74 -59 197t59 197q53 66 126 66t126 -66q59 -74 59 -197zM275 463q-33 23 -65 23q-34 0 -61 -21q7 -20 61 -196zM350 258q0 24 -3 52q-19 -8 -130 -55l66 -194q67 63 67 197zM203 255l-130 55q-3 -33 -3 -52
q0 -137 67 -196q7 20 66 193z" />
    <glyph glyph-name="approxequal" unicode="&#x2248;" 
d="M395 258q0 -123 -59 -197q-53 -66 -126 -66t-126 66q-59 74 -59 197t59 197q53 66 126 66t126 -66q59 -74 59 -197zM275 463q-33 23 -65 23q-34 0 -61 -21q7 -20 61 -196zM350 258q0 24 -3 52q-19 -8 -130 -55l66 -194q67 63 67 197zM203 255l-130 55q-3 -33 -3 -52
q0 -137 67 -196q7 20 66 193z" />
    <glyph glyph-name="approxequal" unicode="&#x22f2;" 
d="M395 258q0 -123 -59 -197q-53 -66 -126 -66t-126 66q-59 74 -59 197t59 197q53 66 126 66t126 -66q59 -74 59 -197zM275 463q-33 23 -65 23q-34 0 -61 -21q7 -20 61 -196zM350 258q0 24 -3 52q-19 -8 -130 -55l66 -194q67 63 67 197zM203 255l-130 55q-3 -33 -3 -52
q0 -137 67 -196q7 20 66 193z" />
    <glyph glyph-name="notequal" unicode="&#x2260;" 
d="M395 258q0 -123 -59 -197q-53 -66 -126 -66t-126 66q-59 74 -59 197t59 197q53 66 126 66t126 -66q59 -74 59 -197zM275 463q-33 23 -65 23q-34 0 -61 -21q7 -20 61 -196zM350 258q0 24 -3 52q-19 -8 -130 -55l66 -194q67 63 67 197zM203 255l-130 55q-3 -33 -3 -52
q0 -137 67 -196q7 20 66 193z" />
    <glyph glyph-name="lessequal" unicode="&#x2264;" 
d="M395 258q0 -123 -59 -197q-53 -66 -126 -66t-126 66q-59 74 -59 197t59 197q53 66 126 66t126 -66q59 -74 59 -197zM275 463q-33 23 -65 23q-34 0 -61 -21q7 -20 61 -196zM350 258q0 24 -3 52q-19 -8 -130 -55l66 -194q67 63 67 197zM203 255l-130 55q-3 -33 -3 -52
q0 -137 67 -196q7 20 66 193z" />
    <glyph glyph-name="greaterequal" unicode="&#x2265;" 
d="M395 258q0 -123 -59 -197q-53 -66 -126 -66t-126 66q-59 74 -59 197t59 197q53 66 126 66t126 -66q59 -74 59 -197zM275 463q-33 23 -65 23q-34 0 -61 -21q7 -20 61 -196zM350 258q0 24 -3 52q-19 -8 -130 -55l66 -194q67 63 67 197zM203 255l-130 55q-3 -33 -3 -52
q0 -137 67 -196q7 20 66 193z" />
    <glyph glyph-name="lozenge" unicode="&#x25ca;" 
d="M395 258q0 -123 -59 -197q-53 -66 -126 -66t-126 66q-59 74 -59 197t59 197q53 66 126 66t126 -66q59 -74 59 -197zM275 463q-33 23 -65 23q-34 0 -61 -21q7 -20 61 -196zM350 258q0 24 -3 52q-19 -8 -130 -55l66 -194q67 63 67 197zM203 255l-130 55q-3 -33 -3 -52
q0 -137 67 -196q7 20 66 193z" />
    <glyph glyph-name="apple" unicode="&#xf000;" 
d="M395 258q0 -123 -59 -197q-53 -66 -126 -66t-126 66q-59 74 -59 197t59 197q53 66 126 66t126 -66q59 -74 59 -197zM275 463q-33 23 -65 23q-34 0 -61 -21q7 -20 61 -196zM350 258q0 24 -3 52q-19 -8 -130 -55l66 -194q67 63 67 197zM203 255l-130 55q-3 -33 -3 -52
q0 -137 67 -196q7 20 66 193z" />
    <glyph glyph-name="fi" unicode="&#xf001;" horiz-adv-x="475" 
d="M430 0h-140v391h-95v-391h-140v391h-40v125h40v32q0 228 231 228q51 0 96 -11v-113q-37 10 -85 10q-54 0 -78 -26.5t-24 -87.5v-32h235v-516z" />
    <glyph glyph-name="fl" unicode="&#xf002;" horiz-adv-x="500" 
d="M455 0h-140v656q-20 6 -40 6q-80 0 -80 -114v-32h60v-125h-60v-391h-140v391h-40v125h40v32q0 131 87 189q57 39 132 39q107 0 181 -47v-729z" />
    <glyph glyph-name="glyph236" horiz-adv-x="500" 
 />
    <glyph glyph-name=".null" horiz-adv-x="0" 
 />
  </font>
</defs>
</svg>
